HIERARCHY
ROOT mixamorig:Hips
{
	OFFSET -0.000008 104.274872 1.554316
	CHANNELS 6 Xposition Yposition Zposition Xrotation Yrotation Zrotation
	JOINT mixamorig:Spine
	{
		OFFSET -0.000005 10.181595 0.131519
		CHANNELS 6 Xposition Yposition Zposition Xrotation Yrotation Zrotation
		JOINT mixamorig:Spine1
		{
			OFFSET -0.000000 9.893959 -1.470707
			CHANNELS 6 Xposition Yposition Zposition Xrotation Yrotation Zrotation
			JOINT mixamorig:Spine2
			{
				OFFSET -0.000000 9.220757 -1.370641
				CHANNELS 6 Xposition Yposition Zposition Xrotation Yrotation Zrotation
				JOINT mixamorig:Neck
				{
					OFFSET 0.000001 16.740417 -2.049036
					CHANNELS 6 Xposition Yposition Zposition Xrotation Yrotation Zrotation
					JOINT mixamorig:Head
					{
						OFFSET 0.000000 9.617874 1.685006
						CHANNELS 6 Xposition Yposition Zposition Xrotation Yrotation Zrotation
						JOINT mixamorig:HeadTop_End
						{
							OFFSET 0.000002 22.037354 7.501101
							CHANNELS 6 Xposition Yposition Zposition Xrotation Yrotation Zrotation
							End Site
							{
								OFFSET 0.000168 2310.654297 -282.823242
							}
						}
					}
				}
				JOINT mixamorig:RightShoulder
				{
					OFFSET -4.569970 11.014908 -2.160885
					CHANNELS 6 Xposition Yposition Zposition Xrotation Yrotation Zrotation
					JOINT mixamorig:RightArm
					{
						OFFSET -10.592851 -0.524811 -2.232101
						CHANNELS 6 Xposition Yposition Zposition Xrotation Yrotation Zrotation
						JOINT mixamorig:RightForeArm
						{
							OFFSET -27.841511 0.000031 -0.000004
							CHANNELS 6 Xposition Yposition Zposition Xrotation Yrotation Zrotation
							JOINT mixamorig:RightHand
							{
								OFFSET -28.328831 -0.000015 0.000015
								CHANNELS 6 Xposition Yposition Zposition Xrotation Yrotation Zrotation
								JOINT mixamorig:RightHandThumb1
								{
									OFFSET -2.464806 -1.573990 2.681852
									CHANNELS 6 Xposition Yposition Zposition Xrotation Yrotation Zrotation
									JOINT mixamorig:RightHandThumb2
									{
										OFFSET -3.215179 -1.872803 1.924282
										CHANNELS 6 Xposition Yposition Zposition Xrotation Yrotation Zrotation
										JOINT mixamorig:RightHandThumb3
										{
											OFFSET -2.654831 -1.527969 1.512609
											CHANNELS 6 Xposition Yposition Zposition Xrotation Yrotation Zrotation
											JOINT mixamorig:RightHandThumb4
											{
												OFFSET -2.018814 -1.152008 1.108052
												CHANNELS 6 Xposition Yposition Zposition Xrotation Yrotation Zrotation
												End Site
												{
													OFFSET -188.809540 -114.533607 132.431396
												}
											}
										}
									}
								}
								JOINT mixamorig:RightHandIndex1
								{
									OFFSET -9.108284 -0.517868 2.259835
									CHANNELS 6 Xposition Yposition Zposition Xrotation Yrotation Zrotation
									JOINT mixamorig:RightHandIndex2
									{
										OFFSET -3.699989 0.000000 0.001215
										CHANNELS 6 Xposition Yposition Zposition Xrotation Yrotation Zrotation
										JOINT mixamorig:RightHandIndex3
										{
											OFFSET -2.850006 0.000031 -0.000522
											CHANNELS 6 Xposition Yposition Zposition Xrotation Yrotation Zrotation
											JOINT mixamorig:RightHandIndex4
											{
												OFFSET -2.772186 -0.000015 -0.000020
												CHANNELS 6 Xposition Yposition Zposition Xrotation Yrotation Zrotation
												End Site
												{
													OFFSET -277.218445 0.000000 -0.050231
												}
											}
										}
									}
								}
								JOINT mixamorig:RightHandMiddle1
								{
									OFFSET -9.532516 -0.000031 -0.000023
									CHANNELS 6 Xposition Yposition Zposition Xrotation Yrotation Zrotation
									JOINT mixamorig:RightHandMiddle2
									{
										OFFSET -3.700005 -0.000015 0.003713
										CHANNELS 6 Xposition Yposition Zposition Xrotation Yrotation Zrotation
										JOINT mixamorig:RightHandMiddle3
										{
											OFFSET -2.949974 0.000015 -0.002054
											CHANNELS 6 Xposition Yposition Zposition Xrotation Yrotation Zrotation
											JOINT mixamorig:RightHandMiddle4
											{
												OFFSET -2.946640 0.000000 -0.000156
												CHANNELS 6 Xposition Yposition Zposition Xrotation Yrotation Zrotation
												End Site
												{
													OFFSET -294.664337 0.000000 -0.113670
												}
											}
										}
									}
								}
								JOINT mixamorig:RightHandRing1
								{
									OFFSET -9.103600 -0.043076 -1.865134
									CHANNELS 6 Xposition Yposition Zposition Xrotation Yrotation Zrotation
									JOINT mixamorig:RightHandRing2
									{
										OFFSET -3.379288 0.000000 -0.001055
										CHANNELS 6 Xposition Yposition Zposition Xrotation Yrotation Zrotation
										JOINT mixamorig:RightHandRing3
										{
											OFFSET -2.889687 -0.000015 0.000379
											CHANNELS 6 Xposition Yposition Zposition Xrotation Yrotation Zrotation
											JOINT mixamorig:RightHandRing4
											{
												OFFSET -2.638809 -0.000015 0.000941
												CHANNELS 6 Xposition Yposition Zposition Xrotation Yrotation Zrotation
												End Site
												{
													OFFSET -263.880371 0.000000 0.516020
												}
											}
										}
									}
								}
								JOINT mixamorig:RightHandPinky1
								{
									OFFSET -8.076683 -0.486710 -3.806280
									CHANNELS 6 Xposition Yposition Zposition Xrotation Yrotation Zrotation
									JOINT mixamorig:RightHandPinky2
									{
										OFFSET -3.600014 -0.000015 -0.003747
										CHANNELS 6 Xposition Yposition Zposition Xrotation Yrotation Zrotation
										JOINT mixamorig:RightHandPinky3
										{
											OFFSET -2.099983 0.000000 -0.005739
											CHANNELS 6 Xposition Yposition Zposition Xrotation Yrotation Zrotation
											JOINT mixamorig:RightHandPinky4
											{
												OFFSET -2.115768 -0.000031 -0.003680
												CHANNELS 6 Xposition Yposition Zposition Xrotation Yrotation Zrotation
												End Site
												{
													OFFSET -211.577087 0.000000 -0.350686
												}
											}
										}
									}
								}
							}
						}
					}
				}
				JOINT mixamorig:LeftShoulder
				{
					OFFSET 4.570447 11.014725 -2.160855
					CHANNELS 6 Xposition Yposition Zposition Xrotation Yrotation Zrotation
					JOINT mixamorig:LeftArm
					{
						OFFSET 10.592371 -0.524597 -2.232119
						CHANNELS 6 Xposition Yposition Zposition Xrotation Yrotation Zrotation
						JOINT mixamorig:LeftForeArm
						{
							OFFSET 27.841532 -0.000031 0.000026
							CHANNELS 6 Xposition Yposition Zposition Xrotation Yrotation Zrotation
							JOINT mixamorig:LeftHand
							{
								OFFSET 28.328846 -0.000061 0.000022
								CHANNELS 6 Xposition Yposition Zposition Xrotation Yrotation Zrotation
								JOINT mixamorig:LeftHandThumb1
								{
									OFFSET 2.466141 -1.576172 2.681732
									CHANNELS 6 Xposition Yposition Zposition Xrotation Yrotation Zrotation
									JOINT mixamorig:LeftHandThumb2
									{
										OFFSET 3.217812 -1.872070 1.916482
										CHANNELS 6 Xposition Yposition Zposition Xrotation Yrotation Zrotation
										JOINT mixamorig:LeftHandThumb3
										{
											OFFSET 2.656029 -1.528778 1.514513
											CHANNELS 6 Xposition Yposition Zposition Xrotation Yrotation Zrotation
											JOINT mixamorig:LeftHandThumb4
											{
												OFFSET 2.020889 -1.154053 1.115139
												CHANNELS 6 Xposition Yposition Zposition Xrotation Yrotation Zrotation
												End Site
												{
													OFFSET 190.885437 -115.081749 130.048782
												}
											}
										}
									}
								}
								JOINT mixamorig:LeftHandIndex1
								{
									OFFSET 9.109314 -0.518021 2.259871
									CHANNELS 6 Xposition Yposition Zposition Xrotation Yrotation Zrotation
									JOINT mixamorig:LeftHandIndex2
									{
										OFFSET 3.699989 0.000000 -0.000322
										CHANNELS 6 Xposition Yposition Zposition Xrotation Yrotation Zrotation
										JOINT mixamorig:LeftHandIndex3
										{
											OFFSET 2.850006 0.000000 0.000352
											CHANNELS 6 Xposition Yposition Zposition Xrotation Yrotation Zrotation
											JOINT mixamorig:LeftHandIndex4
											{
												OFFSET 2.774864 -0.000031 -0.000027
												CHANNELS 6 Xposition Yposition Zposition Xrotation Yrotation Zrotation
												End Site
												{
													OFFSET 277.486267 0.000000 -0.009857
												}
											}
										}
									}
								}
								JOINT mixamorig:LeftHandMiddle1
								{
									OFFSET 9.533394 0.000061 0.000044
									CHANNELS 6 Xposition Yposition Zposition Xrotation Yrotation Zrotation
									JOINT mixamorig:LeftHandMiddle2
									{
										OFFSET 3.699989 -0.000015 -0.000231
										CHANNELS 6 Xposition Yposition Zposition Xrotation Yrotation Zrotation
										JOINT mixamorig:LeftHandMiddle3
										{
											OFFSET 2.949997 -0.000015 -0.000059
											CHANNELS 6 Xposition Yposition Zposition Xrotation Yrotation Zrotation
											JOINT mixamorig:LeftHandMiddle4
											{
												OFFSET 2.952896 0.000031 0.000063
												CHANNELS 6 Xposition Yposition Zposition Xrotation Yrotation Zrotation
												End Site
												{
													OFFSET 295.289337 0.000000 0.022810
												}
											}
										}
									}
								}
								JOINT mixamorig:LeftHandRing1
								{
									OFFSET 9.104523 -0.042999 -1.865074
									CHANNELS 6 Xposition Yposition Zposition Xrotation Yrotation Zrotation
									JOINT mixamorig:LeftHandRing2
									{
										OFFSET 3.150009 -0.000031 0.000043
										CHANNELS 6 Xposition Yposition Zposition Xrotation Yrotation Zrotation
										JOINT mixamorig:LeftHandRing3
										{
											OFFSET 2.949982 -0.000015 0.000040
											CHANNELS 6 Xposition Yposition Zposition Xrotation Yrotation Zrotation
											JOINT mixamorig:LeftHandRing4
											{
												OFFSET 2.644348 0.000000 0.000057
												CHANNELS 6 Xposition Yposition Zposition Xrotation Yrotation Zrotation
												End Site
												{
													OFFSET 264.434631 0.000000 0.012105
												}
											}
										}
									}
								}
								JOINT mixamorig:LeftHandPinky1
								{
									OFFSET 8.077789 -0.486847 -3.806259
									CHANNELS 6 Xposition Yposition Zposition Xrotation Yrotation Zrotation
									JOINT mixamorig:LeftHandPinky2
									{
										OFFSET 3.599953 0.000031 0.014727
										CHANNELS 6 Xposition Yposition Zposition Xrotation Yrotation Zrotation
										JOINT mixamorig:LeftHandPinky3
										{
											OFFSET 2.100021 0.000015 0.007705
											CHANNELS 6 Xposition Yposition Zposition Xrotation Yrotation Zrotation
											JOINT mixamorig:LeftHandPinky4
											{
												OFFSET 2.125504 0.000031 0.007517
												CHANNELS 6 Xposition Yposition Zposition Xrotation Yrotation Zrotation
												End Site
												{
													OFFSET 212.550781 0.000000 0.625752
												}
											}
										}
									}
								}
							}
						}
					}
				}
			}
		}
	}
	JOINT mixamorig:RightUpLeg
	{
		OFFSET -8.207787 -6.751648 -1.599560
		CHANNELS 6 Xposition Yposition Zposition Xrotation Yrotation Zrotation
		JOINT mixamorig:RightLeg
		{
			OFFSET -0.000002 -44.370117 0.345942
			CHANNELS 6 Xposition Yposition Zposition Xrotation Yrotation Zrotation
			JOINT mixamorig:RightFoot
			{
				OFFSET 0.000003 -44.423679 -3.043532
				CHANNELS 6 Xposition Yposition Zposition Xrotation Yrotation Zrotation
				JOINT mixamorig:RightToeBase
				{
					OFFSET -0.000002 -8.728671 10.710558
					CHANNELS 6 Xposition Yposition Zposition Xrotation Yrotation Zrotation
					JOINT mixamorig:RightToe_End
					{
						OFFSET -0.000001 -0.000679 9.278119
						CHANNELS 6 Xposition Yposition Zposition Xrotation Yrotation Zrotation
						End Site
						{
							OFFSET 0.000000 -0.067690 927.812134
						}
					}
				}
			}
		}
	}
	JOINT mixamorig:LeftUpLeg
	{
		OFFSET 8.207793 -6.751686 -1.599556
		CHANNELS 6 Xposition Yposition Zposition Xrotation Yrotation Zrotation
		JOINT mixamorig:LeftLeg
		{
			OFFSET -0.000004 -44.370014 0.346954
			CHANNELS 6 Xposition Yposition Zposition Xrotation Yrotation Zrotation
			JOINT mixamorig:LeftFoot
			{
				OFFSET -0.000001 -44.423672 -3.044401
				CHANNELS 6 Xposition Yposition Zposition Xrotation Yrotation Zrotation
				JOINT mixamorig:LeftToeBase
				{
					OFFSET -0.000002 -8.728669 10.710558
					CHANNELS 6 Xposition Yposition Zposition Xrotation Yrotation Zrotation
					JOINT mixamorig:LeftToe_End
					{
						OFFSET -0.000003 -0.000679 9.278133
						CHANNELS 6 Xposition Yposition Zposition Xrotation Yrotation Zrotation
						End Site
						{
							OFFSET 0.000000 -0.068021 927.813477
						}
					}
				}
			}
		}
	}
}
MOTION
Frames: 3
Frame Time: 0.033333
0.000006 104.270477 1.554256 0.000010 0.000003 -0.000113 -0.000005 10.181587 0.131522 0.000001 -0.000003 0.000084 -0.000000 9.893967 -1.470711 0.000001 0.000000 -0.000000 -0.000000 9.220802 -1.370642 0.000000 -0.000000 -0.000000 0.000001 16.740433 -2.049030 0.000000 -0.000000 -0.000000 0.000000 9.617859 1.685014 0.000000 0.000000 0.000000 0.000002 22.037384 7.501101 0.000000 -0.000000 0.000000 -4.569968 11.014880 -2.160881 0.000008 0.000001 -0.000038 -10.592872 -0.524686 -2.232014 70.993246 9.292898 -6.634887 -27.841539 0.000020 0.000511 119.551615 59.908170 -89.377383 -28.328812 0.000022 0.000022 -0.000321 -0.000045 0.000006 -2.464467 -1.573693 2.682308 -53.095575 -177.963325 -27.661098 -3.215280 -1.872603 1.924662 155.765073 29.964962 -6.617726 -2.654947 -1.527915 1.513095 146.743992 26.273629 -44.492962 -2.018834 -1.151995 1.108064 -0.000002 -0.000001 0.000002 -9.108384 -0.517560 2.260100 93.677841 16.767068 -17.911937 -3.700106 0.000308 0.001503 87.646388 17.101163 -16.398704 -2.850090 0.000351 -0.000314 86.911487 14.060766 -13.328452 -2.772154 0.000002 -0.000013 0.000005 -0.000002 0.000002 -9.532583 0.000281 0.000214 90.938457 13.818151 -14.185538 -3.700088 0.000319 0.003967 89.811865 13.323263 -13.184321 -2.950077 0.000339 -0.001831 88.811215 12.631253 -12.366842 -2.946617 0.000002 -0.000152 0.000005 -0.000001 0.000000 -9.103682 -0.042738 -1.864897 89.618714 14.559013 -14.420208 -3.379337 0.000322 -0.000821 90.242433 8.932007 -8.986990 -2.889756 0.000342 0.000614 91.202526 6.636969 -6.823729 -2.638817 -0.000002 0.000947 0.000001 0.000001 0.000000 -8.076742 -0.486372 -3.806039 86.207472 14.007399 -12.980623 -3.600014 0.000275 -0.003517 90.905419 5.815346 -5.559914 -2.100001 0.000321 -0.005497 91.011820 3.629116 -3.477008 -2.115764 -0.000039 -0.003690 0.000004 -0.000002 -0.000002 4.570446 11.014691 -2.160851 -0.000018 0.000010 -0.000021 10.592356 -0.524528 -2.232275 71.572651 10.256263 -7.402756 27.841839 0.000152 -0.000243 103.395267 -60.779627 73.189479 28.328854 -0.000026 0.000034 0.000020 -0.000088 -0.000000 2.466060 -1.576176 2.681898 -30.368169 153.457152 -25.621387 3.217767 -1.871694 1.916368 154.696326 -33.198152 -13.417545 2.656094 -1.528624 1.514457 143.109265 -27.296656 41.269441 2.020898 -1.154087 1.115149 0.000002 -0.000001 0.000006 9.109380 -0.517879 2.259720 84.143846 -16.237108 14.663796 3.700053 0.000137 -0.000466 82.427461 -17.031527 14.958256 2.850061 0.000183 0.000212 81.397659 -14.152498 12.187521 2.774891 -0.000031 -0.000030 -0.000000 -0.000004 -0.000005 9.533471 0.000185 -0.000109 84.274958 -15.339394 13.885470 3.700070 0.000165 -0.000381 89.442010 -15.389028 15.238908 2.950075 0.000173 -0.000191 88.940128 -19.384043 19.038391 2.952863 -0.000014 0.000065 0.000002 0.000003 -0.000002 9.104595 -0.042870 -1.865249 84.350821 -14.422856 13.080663 3.150047 0.000208 -0.000098 91.341896 -12.968191 13.274692 2.950022 0.000182 -0.000071 92.178355 -14.981634 15.557252 2.644330 0.000029 0.000054 -0.000000 -0.000001 0.000001 8.077850 -0.486741 -3.806400 77.462883 -16.263497 13.549957 3.600022 0.000193 0.014558 80.554664 -13.240656 11.667534 2.100046 0.000199 0.007554 84.490745 -13.089290 12.340704 2.125502 -0.000014 0.007513 0.000001 0.000002 0.000000 -8.207786 -6.751667 -1.599560 -0.077001 -0.000003 0.000080 -0.000002 -44.370110 0.345938 0.153719 -0.000000 -0.000000 0.000000 -44.423679 -3.043532 -0.076700 0.000000 -0.000002 -0.000006 -8.728667 10.710559 -0.000009 -0.000000 -0.000000 -0.000001 -0.000679 9.278123 0.000000 -0.000000 -0.000000 8.207792 -6.751710 -1.599556 -0.074518 -0.000003 0.000081 -0.000002 -44.370014 0.346960 0.148822 0.000002 0.000000 -0.000001 -44.423664 -3.044403 -0.074314 0.000000 -0.000002 -0.000004 -8.728671 10.710558 0.000007 -0.000000 -0.000000 0.000000 -0.000680 9.278137 -0.000000 0.000000 -0.000001 
0.000006 104.270477 1.554256 0.000010 0.000003 -0.000113 -0.000005 10.181587 0.131522 0.000001 -0.000003 0.000084 -0.000000 9.893967 -1.470711 0.000001 0.000000 -0.000000 -0.000000 9.220802 -1.370642 0.000000 -0.000000 -0.000000 0.000001 16.740433 -2.049030 0.000000 -0.000000 -0.000000 0.000000 9.617859 1.685014 0.000000 0.000000 0.000000 0.000002 22.037384 7.501101 0.000000 -0.000000 0.000000 -4.569968 11.014880 -2.160881 0.000008 0.000001 -0.000038 -10.592876 -0.524693 -2.232001 70.400030 12.305841 -8.697616 -27.841532 0.000000 0.000531 122.316708 63.117915 -96.241805 -28.328819 0.000021 0.000020 -0.000321 -0.000044 0.000007 -2.464426 -1.573746 2.682330 -48.290028 -167.125112 -10.809386 -3.215304 -1.872586 1.924650 153.874395 31.112676 1.270107 -2.654949 -1.527858 1.513060 144.008596 27.429941 -38.348090 -2.018835 -1.151992 1.108060 0.000001 -0.000004 0.000005 -9.108373 -0.517560 2.260099 93.720024 16.487267 -17.627094 -3.700075 0.000314 0.001481 90.005924 14.539651 -14.517268 -2.850087 0.000359 -0.000292 88.527229 11.201592 -10.918121 -2.772162 -0.000000 -0.000020 -0.000001 0.000001 0.000002 -9.532592 0.000280 0.000211 89.879812 13.962206 -14.072376 -3.700060 0.000331 0.003951 89.389336 11.973220 -11.753639 -2.950077 0.000326 -0.001808 90.951188 11.338139 -11.519479 -2.946606 0.000029 -0.000164 -0.000002 0.000000 -0.000001 -9.103693 -0.042743 -1.864887 88.922110 15.253754 -14.929643 -3.379321 0.000330 -0.000817 90.792858 8.407078 -8.541109 -2.889754 0.000349 0.000647 96.275908 5.809916 -6.532551 -2.638803 -0.000018 0.000943 -0.000002 -0.000000 0.000001 -8.076742 -0.486374 -3.806041 85.729796 15.218543 -13.998357 -3.600028 0.000296 -0.003535 89.260389 5.713944 -5.303142 -2.100003 0.000331 -0.005494 92.699314 2.820247 -2.735870 -2.115776 -0.000055 -0.003686 -0.000001 0.000004 -0.000000 4.570446 11.014691 -2.160851 -0.000018 0.000010 -0.000021 10.592352 -0.524549 -2.232278 71.687890 16.785752 -12.167342 27.841846 0.000101 -0.000224 104.488432 -65.350635 79.262016 28.328823 -0.000029 0.000013 0.000020 -0.000090 0.000000 2.466277 -1.576016 2.681821 12.908577 174.039039 -113.069315 3.217841 -1.871799 1.916402 168.446426 -24.421790 28.465592 2.656121 -1.528668 1.514491 143.185600 -26.050787 58.522119 2.020887 -1.154087 1.115124 0.000002 0.000007 0.000004 9.109406 -0.517867 2.259747 87.514544 -21.348391 20.448953 3.700039 0.000160 -0.000468 85.690597 -12.821369 11.914177 2.850026 0.000191 0.000202 84.904757 -9.685839 8.862918 2.774877 -0.000045 -0.000033 -0.000003 0.000002 0.000001 9.533488 0.000204 -0.000053 87.058035 -20.595056 19.575498 3.700052 0.000194 -0.000384 90.745456 -10.650953 10.786956 2.950024 0.000202 -0.000200 91.767526 -10.567151 10.899269 2.952848 -0.000015 0.000065 0.000001 0.000001 0.000001 9.104607 -0.042863 -1.865208 86.409475 -20.156955 18.956603 3.150051 0.000208 -0.000084 92.443851 -12.424329 12.963286 2.950013 0.000201 -0.000069 93.433621 -10.229223 10.859537 2.644321 0.000016 0.000071 0.000000 0.000001 -0.000001 8.077871 -0.486730 -3.806378 79.943976 -21.363421 18.488825 3.600013 0.000178 0.014574 81.484491 -17.866689 15.885128 2.100028 0.000183 0.007549 83.286405 -13.164062 12.151692 2.125501 -0.000010 0.007522 0.000000 0.000003 0.000001 -8.207786 -6.751667 -1.599560 -0.077001 -0.000003 0.000080 -0.000002 -44.370110 0.345938 0.153719 -0.000000 -0.000000 0.000000 -44.423679 -3.043532 -0.076700 0.000000 -0.000002 -0.000006 -8.728667 10.710559 -0.000009 -0.000000 -0.000000 -0.000001 -0.000679 9.278123 0.000000 -0.000000 -0.000000 8.207792 -6.751710 -1.599556 -0.074518 -0.000003 0.000081 -0.000002 -44.370014 0.346960 0.148822 0.000002 0.000000 -0.000001 -44.423664 -3.044403 -0.074314 0.000000 -0.000002 -0.000004 -8.728671 10.710558 0.000007 -0.000000 -0.000000 0.000000 -0.000680 9.278137 -0.000000 0.000000 -0.000001 
0.000006 104.270477 1.554256 0.000010 0.000003 -0.000113 -0.000005 10.181587 0.131522 0.000001 -0.000003 0.000084 -0.000000 9.893967 -1.470711 0.000001 0.000000 -0.000000 -0.000000 9.220802 -1.370642 0.000000 -0.000000 -0.000000 0.000001 16.740433 -2.049030 0.000000 -0.000000 -0.000000 0.000000 9.617859 1.685014 0.000000 0.000000 0.000000 0.000002 22.037384 7.501101 0.000000 -0.000000 0.000000 -4.569968 11.014880 -2.160881 0.000008 0.000001 -0.000038 -10.592878 -0.524703 -2.231997 68.760696 13.125973 -9.001865 -27.841522 0.000021 0.000539 125.125446 64.762522 -101.386870 -28.328835 0.000021 0.000026 -0.000316 -0.000044 0.000006 -2.464418 -1.573794 2.682354 -44.703540 -162.601464 -1.925893 -3.215286 -1.872625 1.924664 154.581183 30.254781 -4.486860 -2.654953 -1.527866 1.513075 143.320223 27.762462 -35.414831 -2.018823 -1.152000 1.108056 -0.000001 0.000000 0.000004 -9.108380 -0.517562 2.260108 97.528244 16.572056 -18.919948 -3.700069 0.000315 0.001490 94.059437 12.978582 -13.898144 -2.850084 0.000380 -0.000279 92.014498 9.556235 -9.895669 -2.772156 -0.000002 -0.000018 0.000002 -0.000001 0.000000 -9.532578 0.000273 0.000220 93.065460 13.702955 -14.595170 -3.700072 0.000343 0.003953 92.576418 10.281722 -10.655190 -2.950045 0.000345 -0.001828 94.004850 10.160556 -10.885031 -2.946623 0.000002 -0.000157 0.000000 0.000000 -0.000001 -9.103691 -0.042733 -1.864880 92.631388 13.840840 -14.439600 -3.379324 0.000323 -0.000807 93.303430 8.483039 -9.002889 -2.889767 0.000372 0.000663 97.811751 6.692301 -7.722401 -2.638805 -0.000001 0.000936 -0.000001 -0.000002 0.000001 -8.076741 -0.486363 -3.806013 88.350928 14.231012 -13.688733 -3.600028 0.000292 -0.003505 91.833164 7.505420 -7.386856 -2.100009 0.000313 -0.005474 94.830886 4.913787 -5.109854 -2.115761 -0.000056 -0.003672 0.000001 -0.000001 -0.000003 4.570446 11.014691 -2.160851 -0.000018 0.000010 -0.000021 10.592359 -0.524550 -2.232264 69.916528 15.462735 -10.843899 27.841846 0.000095 -0.000192 106.957518 -65.856616 82.342384 28.328848 -0.000029 0.000019 0.000021 -0.000088 -0.000000 2.466272 -1.575958 2.681803 17.007950 179.934080 -123.740625 3.217865 -1.871867 1.916409 167.502890 -20.561096 41.936211 2.656095 -1.528674 1.514480 142.510558 -26.386243 57.428524 2.020895 -1.154067 1.115142 0.000003 -0.000000 0.000001 9.109402 -0.517863 2.259732 88.911284 -21.564886 21.155468 3.700032 0.000167 -0.000471 89.127856 -12.829667 12.654049 2.850047 0.000216 0.000198 88.260401 -9.004947 8.735449 2.774863 -0.000049 -0.000034 -0.000001 -0.000001 0.000001 9.533487 0.000195 -0.000085 87.445546 -20.229659 19.355525 3.700047 0.000197 -0.000368 93.120327 -10.065143 10.622887 2.950047 0.000203 -0.000205 94.046610 -9.591130 10.293023 2.952845 -0.000017 0.000073 -0.000000 0.000000 -0.000001 9.104591 -0.042864 -1.865224 87.591384 -19.459653 18.674661 3.150045 0.000213 -0.000099 94.719049 -12.201521 13.243289 2.950031 0.000219 -0.000071 95.382451 -9.610695 10.555531 2.644315 0.000033 0.000049 -0.000001 0.000000 0.000001 8.077855 -0.486717 -3.806410 80.993456 -20.432625 18.022588 3.600008 0.000190 0.014574 81.976176 -17.490265 15.690888 2.100048 0.000191 0.007550 83.678177 -12.954759 12.046005 2.125501 -0.000026 0.007520 0.000001 0.000002 -0.000002 -8.207786 -6.751667 -1.599560 -0.077001 -0.000003 0.000080 -0.000002 -44.370110 0.345938 0.153719 -0.000000 -0.000000 0.000000 -44.423679 -3.043532 -0.076700 0.000000 -0.000002 -0.000006 -8.728667 10.710559 -0.000009 -0.000000 -0.000000 -0.000001 -0.000679 9.278123 0.000000 -0.000000 -0.000000 8.207792 -6.751710 -1.599556 -0.074518 -0.000003 0.000081 -0.000002 -44.370014 0.346960 0.148822 0.000002 0.000000 -0.000001 -44.423664 -3.044403 -0.074314 0.000000 -0.000002 -0.000004 -8.728671 10.710558 0.000007 -0.000000 -0.000000 0.000000 -0.000680 9.278137 -0.000000 0.000000 -0.000001 
